<?xml version="1.0" standalone="no"?>
<!DOCTYPE svg PUBLIC "-//W3C//DTD SVG 20010904//EN"
 "http://www.w3.org/TR/2001/REC-SVG-20010904/DTD/svg10.dtd">
<svg version="1.0" xmlns="http://www.w3.org/2000/svg"
 width="255.000000pt" height="255.000000pt" viewBox="0 0 255.000000 255.000000"
 preserveAspectRatio="xMidYMid meet">
<metadata>
Created by potrace 1.11, written by Peter Selinger 2001-2013
</metadata>
<g transform="translate(0.000000,255.000000) scale(0.100000,-0.100000)"
fill="#000000" stroke="none">
<path d="M1100 2538 c-182 -35 -272 -63 -404 -131 -368 -187 -627 -550 -683
-957 -16 -120 -7 -355 18 -455 100 -401 360 -718 724 -882 71 -32 220 -79 285
-90 19 -3 46 -7 60 -9 100 -18 342 -7 455 20 115 27 189 53 285 100 245 122
442 316 567 562 40 78 92 208 98 244 0 3 6 28 13 55 41 178 36 428 -13 610
-70 263 -230 503 -452 678 -40 31 -75 57 -78 57 -3 0 -24 12 -48 27 -120 76
-260 129 -432 163 -73 15 -333 20 -395 8z"/>
</g>
</svg>
